<svg width="114" height="34" viewBox="0 0 114 34" fill="none" xmlns="http://www.w3.org/2000/svg">
<path fill-rule="evenodd" clip-rule="evenodd" d="M14.6915 7.22681C15.5614 6.35701 16.9717 6.35701 17.8415 7.22681C18.7114 8.09666 18.7114 9.50695 17.8415 10.3768L12.5383 15.68C11.0158 13.6394 11.1812 10.7373 13.0346 8.88386L14.6915 7.22681Z" fill="#A2DE64"/>
<path fill-rule="evenodd" clip-rule="evenodd" d="M22.2722 19.1916C23.1422 20.0614 23.1422 21.4717 22.2722 22.3415C21.4029 23.2113 19.9924 23.2113 19.1225 22.3415L13.8193 17.0384C15.8599 15.5158 18.7621 15.6811 20.6155 17.5345L22.2722 19.1916Z" fill="#FDF8E9"/>
<path fill-rule="evenodd" clip-rule="evenodd" d="M10.3082 26.7729C9.43837 27.6428 8.02804 27.6428 7.15825 26.7729C6.2884 25.9031 6.2884 24.4928 7.15825 23.6229L12.4614 18.3198C13.984 20.3604 13.8186 23.2625 11.9652 25.1159L10.3082 26.7729Z" fill="#FFD9E9"/>
<path fill-rule="evenodd" clip-rule="evenodd" d="M2.72661 14.8082C1.85676 13.9384 1.85676 12.5281 2.72661 11.6583C3.59646 10.7884 5.00673 10.7884 5.87659 11.6583L11.1798 16.9614C9.1392 18.484 6.23699 18.3186 4.38365 16.4653L2.72661 14.8082Z" fill="#FF8A4A"/>
<path fill-rule="evenodd" clip-rule="evenodd" d="M13.5063 26.1236C14.7889 24.6976 15.3851 22.8728 15.2946 21.0762L17.8415 23.6231C17.8478 23.6294 17.8542 23.6357 17.8606 23.642V25.4604C17.8606 26.6905 16.8634 27.6877 15.6333 27.6877C14.6341 27.6877 13.7887 27.0298 13.5063 26.1236Z" fill="#FF8A4A"/>
<path fill-rule="evenodd" clip-rule="evenodd" d="M3.37609 18.0063C4.8021 19.289 6.62686 19.8851 8.42348 19.7947L5.87666 22.3416C5.87026 22.3479 5.86393 22.3543 5.85767 22.3606H4.03936C2.80923 22.3607 1.81201 21.3634 1.81201 20.1333C1.81201 19.1342 2.46989 18.2887 3.37609 18.0063Z" fill="#A2DE64"/>
<path fill-rule="evenodd" clip-rule="evenodd" d="M21.6234 15.9933C20.1976 14.7106 18.3728 14.1145 16.5762 14.2049L19.123 11.658C19.1294 11.6517 19.1357 11.6453 19.142 11.6389H20.9604C22.1907 11.6389 23.1879 12.6362 23.1879 13.8663C23.1879 14.8655 22.5298 15.711 21.6234 15.9933Z" fill="#FFD9E9"/>
<path fill-rule="evenodd" clip-rule="evenodd" d="M11.4934 7.87616C10.2108 9.30217 9.61472 11.1269 9.7051 12.9236L7.15828 10.3767C7.15189 10.3704 7.14555 10.3641 7.13916 10.3577V8.53942C7.13916 7.30929 8.13638 6.31201 9.36651 6.31201C10.3657 6.31201 11.2111 6.96995 11.4934 7.87616Z" fill="#FDF8E9"/>
<path fill-rule="evenodd" clip-rule="evenodd" d="M9.36651 4.5C7.13552 4.5 5.32693 6.30859 5.32693 8.53958V9.32525C3.98473 8.97456 2.49724 9.32506 1.44543 10.3769C-0.132127 11.9544 -0.132127 14.5122 1.44543 16.0897L2.00095 16.6452C0.803917 17.3464 0 18.646 0 20.1334C0 22.3644 1.80859 24.173 4.03958 24.173H4.82519C4.4745 25.5152 4.825 27.0027 5.87681 28.0544C7.45437 29.632 10.0121 29.632 11.5897 28.0544L13.2466 26.3975C14.7084 24.9357 15.3911 22.9899 15.2947 21.0761L17.8417 23.623C19.4192 25.2006 21.977 25.2006 23.5546 23.623C25.1323 22.0454 25.1323 19.4877 23.5546 17.9102L22.9993 17.3548C24.1958 16.6536 25 15.354 25 13.8666C25 11.6356 23.1911 9.82699 20.9604 9.82699H20.1747C20.5254 8.48473 20.1749 6.99724 19.1231 5.94543C17.5456 4.36787 14.9878 4.36787 13.4103 5.94543L11.7532 7.60247C10.2915 9.06419 9.60882 11.0099 9.70516 12.9238L7.15828 10.3769C7.15188 10.3705 7.14555 10.3642 7.13916 10.3579V8.53958C7.13916 7.30945 8.13638 6.31223 9.36651 6.31223C10.3657 6.31223 11.2111 6.9701 11.4934 7.87631C11.5771 7.7833 11.6637 7.69197 11.7532 7.60247L12.8547 6.50095C12.1536 5.30392 10.8539 4.5 9.36651 4.5ZM19.1421 11.6392C19.1357 11.6455 19.1295 11.6519 19.1231 11.6583L16.5762 14.2051C18.3729 14.1147 20.1976 14.7108 21.6235 15.9935C22.5298 15.7112 23.188 14.8657 23.188 13.8666C23.188 12.6364 22.1907 11.6392 20.9604 11.6392H19.1421ZM5.85776 22.3608C5.86409 22.3544 5.87042 22.348 5.87681 22.3417L8.42363 19.7948C6.62701 19.8852 4.80231 19.2891 3.37631 18.0065C2.4701 18.2888 1.81217 19.1343 1.81217 20.1334C1.81217 21.3636 2.80944 22.3608 4.03958 22.3608H5.85776ZM15.6334 29.5C14.1459 29.5 12.8463 28.696 12.1452 27.499L13.2466 26.3975C13.3362 26.308 13.4228 26.2166 13.5064 26.1236C13.7887 27.0298 14.6342 27.6878 15.6334 27.6878C16.8636 27.6878 17.8608 26.6906 17.8608 25.4604V23.6421C18.3828 24.1573 19.0102 24.5015 19.673 24.6747V25.4604C19.673 27.6914 17.8644 29.5 15.6334 29.5ZM17.8417 7.22683C16.9718 6.35704 15.5615 6.35704 14.6917 7.22683L13.0346 8.88386C11.1813 10.7373 11.0159 13.6394 12.5385 15.68L17.8417 10.3768C18.7115 9.50695 18.7115 8.09669 17.8417 7.22683ZM22.2729 22.3416C23.1428 21.4717 23.1428 20.0615 22.2729 19.1916L20.616 17.5346C18.7627 15.6812 15.8604 15.5158 13.8199 17.0384L19.1231 22.3416C19.9929 23.2114 21.4035 23.2114 22.2729 22.3416ZM10.3082 26.773C9.43834 27.6429 8.02807 27.6429 7.15821 26.773C6.28842 25.9032 6.28842 24.4929 7.15821 23.6231L12.4614 18.3199C13.984 20.3604 13.8186 23.2627 11.9652 25.116L10.3082 26.773ZM2.72684 11.6583C1.85704 12.5281 1.85704 13.9384 2.72684 14.8082L4.38387 16.4653C6.23728 18.3186 9.13942 18.484 11.18 16.9614L5.87681 11.6583C5.00696 10.7885 3.59669 10.7885 2.72684 11.6583Z" fill="#111827"/>
<path d="M41.4628 11.332V13.14H36.8068V16.004H40.3748V17.78H36.8068V22.5H34.5668V11.332H41.4628ZM45.0512 15.012C45.3392 14.5427 45.7125 14.1747 46.1712 13.908C46.6405 13.6413 47.1739 13.508 47.7712 13.508V15.86H47.1792C46.4752 15.86 45.9419 16.0253 45.5792 16.356C45.2272 16.6867 45.0512 17.2627 45.0512 18.084V22.5H42.8112V13.636H45.0512V15.012ZM57.2799 17.876C57.2799 18.196 57.2586 18.484 57.2159 18.74H50.7359C50.7893 19.38 51.0133 19.8813 51.4079 20.244C51.8026 20.6067 52.2879 20.788 52.8639 20.788C53.6959 20.788 54.2879 20.4307 54.6399 19.716H57.0559C56.7999 20.5693 56.3093 21.2733 55.5839 21.828C54.8586 22.372 53.9679 22.644 52.9119 22.644C52.0586 22.644 51.2906 22.4573 50.6079 22.084C49.9359 21.7 49.4079 21.1613 49.0239 20.468C48.6506 19.7747 48.4639 18.9747 48.4639 18.068C48.4639 17.1507 48.6506 16.3453 49.0239 15.652C49.3973 14.9587 49.9199 14.4253 50.5919 14.052C51.2639 13.6787 52.0373 13.492 52.9119 13.492C53.7546 13.492 54.5066 13.6733 55.1679 14.036C55.8399 14.3987 56.3573 14.916 56.7199 15.588C57.0933 16.2493 57.2799 17.012 57.2799 17.876ZM54.9599 17.236C54.9493 16.66 54.7413 16.2013 54.3359 15.86C53.9306 15.508 53.4346 15.332 52.8479 15.332C52.2933 15.332 51.8239 15.5027 51.4399 15.844C51.0666 16.1747 50.8373 16.6387 50.7519 17.236H54.9599ZM62.0669 22.644C61.3416 22.644 60.6909 22.516 60.1149 22.26C59.5389 21.9933 59.0803 21.636 58.7389 21.188C58.4083 20.74 58.2269 20.244 58.1949 19.7H60.4509C60.4936 20.0413 60.6589 20.324 60.9469 20.548C61.2456 20.772 61.6136 20.884 62.0509 20.884C62.4776 20.884 62.8083 20.7987 63.0429 20.628C63.2883 20.4573 63.4109 20.2387 63.4109 19.972C63.4109 19.684 63.2616 19.4707 62.9629 19.332C62.6749 19.1827 62.2109 19.0227 61.5709 18.852C60.9096 18.692 60.3656 18.5267 59.9389 18.356C59.5229 18.1853 59.1603 17.924 58.8509 17.572C58.5523 17.22 58.4029 16.7453 58.4029 16.148C58.4029 15.6573 58.5416 15.2093 58.8189 14.804C59.1069 14.3987 59.5123 14.0787 60.0349 13.844C60.5683 13.6093 61.1923 13.492 61.9069 13.492C62.9629 13.492 63.8056 13.7587 64.4349 14.292C65.0643 14.8147 65.4109 15.524 65.4749 16.42H63.3309C63.2989 16.068 63.1496 15.7907 62.8829 15.588C62.6269 15.3747 62.2803 15.268 61.8429 15.268C61.4376 15.268 61.1229 15.3427 60.8989 15.492C60.6856 15.6413 60.5789 15.8493 60.5789 16.116C60.5789 16.4147 60.7283 16.644 61.0269 16.804C61.3256 16.9533 61.7896 17.108 62.4189 17.268C63.0589 17.428 63.5869 17.5933 64.0029 17.764C64.4189 17.9347 64.7763 18.2013 65.0749 18.564C65.3843 18.916 65.5443 19.3853 65.5549 19.972C65.5549 20.484 65.4109 20.9427 65.1229 21.348C64.8456 21.7533 64.4403 22.0733 63.9069 22.308C63.3843 22.532 62.7709 22.644 62.0669 22.644ZM72.1457 13.508C72.8177 13.508 73.415 13.6573 73.9377 13.956C74.4604 14.244 74.8657 14.676 75.1537 15.252C75.4524 15.8173 75.6017 16.5 75.6017 17.3V22.5H73.3617V17.604C73.3617 16.9 73.1857 16.3613 72.8337 15.988C72.4817 15.604 72.0017 15.412 71.3937 15.412C70.775 15.412 70.2844 15.604 69.9217 15.988C69.5697 16.3613 69.3937 16.9 69.3937 17.604V22.5H67.1537V10.66H69.3937V14.74C69.6817 14.356 70.0657 14.0573 70.5457 13.844C71.0257 13.62 71.559 13.508 72.1457 13.508ZM84.3878 11.332V13.14H79.7318V16.004H83.2998V17.78H79.7318V22.5H77.4918V11.332H84.3878ZM86.8722 12.58C86.4775 12.58 86.1469 12.4573 85.8802 12.212C85.6242 11.956 85.4962 11.6413 85.4962 11.268C85.4962 10.8947 85.6242 10.5853 85.8802 10.34C86.1469 10.084 86.4775 9.956 86.8722 9.956C87.2669 9.956 87.5922 10.084 87.8482 10.34C88.1149 10.5853 88.2482 10.8947 88.2482 11.268C88.2482 11.6413 88.1149 11.956 87.8482 12.212C87.5922 12.4573 87.2669 12.58 86.8722 12.58ZM87.9762 13.636V22.5H85.7362V13.636H87.9762ZM98.1893 17.876C98.1893 18.196 98.168 18.484 98.1253 18.74H91.6453C91.6986 19.38 91.9226 19.8813 92.3173 20.244C92.712 20.6067 93.1973 20.788 93.7733 20.788C94.6053 20.788 95.1973 20.4307 95.5493 19.716H97.9653C97.7093 20.5693 97.2186 21.2733 96.4933 21.828C95.768 22.372 94.8773 22.644 93.8213 22.644C92.968 22.644 92.2 22.4573 91.5173 22.084C90.8453 21.7 90.3173 21.1613 89.9333 20.468C89.56 19.7747 89.3733 18.9747 89.3733 18.068C89.3733 17.1507 89.56 16.3453 89.9333 15.652C90.3066 14.9587 90.8293 14.4253 91.5013 14.052C92.1733 13.6787 92.9466 13.492 93.8213 13.492C94.664 13.492 95.416 13.6733 96.0773 14.036C96.7493 14.3987 97.2666 14.916 97.6293 15.588C98.0026 16.2493 98.1893 17.012 98.1893 17.876ZM95.8693 17.236C95.8586 16.66 95.6506 16.2013 95.2453 15.86C94.84 15.508 94.344 15.332 93.7573 15.332C93.2026 15.332 92.7333 15.5027 92.3493 15.844C91.976 16.1747 91.7466 16.6387 91.6613 17.236H95.8693ZM101.824 10.66V22.5H99.5843V10.66H101.824ZM103.221 18.036C103.221 17.14 103.397 16.3453 103.749 15.652C104.112 14.9587 104.603 14.4253 105.221 14.052C105.84 13.6787 106.528 13.492 107.285 13.492C107.861 13.492 108.411 13.62 108.933 13.876C109.456 14.1213 109.872 14.452 110.181 14.868V10.66H112.453V22.5H110.181V21.188C109.904 21.6253 109.515 21.9773 109.013 22.244C108.512 22.5107 107.931 22.644 107.269 22.644C106.523 22.644 105.84 22.452 105.221 22.068C104.603 21.684 104.112 21.1453 103.749 20.452C103.397 19.748 103.221 18.9427 103.221 18.036ZM110.197 18.068C110.197 17.524 110.091 17.06 109.877 16.676C109.664 16.2813 109.376 15.9827 109.013 15.78C108.651 15.5667 108.261 15.46 107.845 15.46C107.429 15.46 107.045 15.5613 106.693 15.764C106.341 15.9667 106.053 16.2653 105.829 16.66C105.616 17.044 105.509 17.5027 105.509 18.036C105.509 18.5693 105.616 19.0387 105.829 19.444C106.053 19.8387 106.341 20.1427 106.693 20.356C107.056 20.5693 107.44 20.676 107.845 20.676C108.261 20.676 108.651 20.5747 109.013 20.372C109.376 20.1587 109.664 19.86 109.877 19.476C110.091 19.0813 110.197 18.612 110.197 18.068Z" fill="white"/>
</svg>
